<svg width="50" height="50" viewBox="0 0 50 50" fill="none" xmlns="http://www.w3.org/2000/svg">
<path d="M21.3824 42.7625C26.1265 42.7615 30.734 41.1734 34.4711 38.251L46.2207 50L50 46.2209L38.2504 34.4719C41.1744 30.7346 42.7636 26.1264 42.7647 21.3812C42.7647 9.59215 33.1721 0 21.3824 0C9.59267 0 0 9.59215 0 21.3812C0 33.1703 9.59267 42.7625 21.3824 42.7625ZM21.3824 5.34531C30.2267 5.34531 37.4191 12.5374 37.4191 21.3812C37.4191 30.225 30.2267 37.4171 21.3824 37.4171C12.5381 37.4171 5.34559 30.225 5.34559 21.3812C5.34559 12.5374 12.5381 5.34531 21.3824 5.34531Z" fill="#FFBE9D"/>
</svg>
