<svg width="96" height="96" viewBox="0 0 96 96" fill="none" xmlns="http://www.w3.org/2000/svg">
<path d="M43.6719 0.187508C27.3906 1.56251 12.7031 11.5 5.23438 26.2031C2.23438 32.125 0.671879 37.6094 0.187504 43.9531C-0.609371 54.4531 1.73438 64.1719 7.20313 73.0781C13.9063 84 25.375 92.0781 37.9219 94.7187C44.2656 96.0469 51.8906 96.0156 58.1562 94.6406C75.1562 90.9062 88.8125 78.125 93.8281 61.2812C96.5469 52.1875 96.3281 41.5312 93.2656 32.6094C88.2187 17.9062 76.6562 6.68751 61.8281 2.09376C57.4062 0.718758 53.9531 0.187508 48.8594 0.109383C46.8906 0.0781326 44.5469 0.109383 43.6719 0.187508ZM68.5 12.5625C72.3125 16.625 76.1094 20.6563 76.9062 21.5156C77.7031 22.375 78.9375 23.6719 79.6406 24.4063C85.3437 30.3594 93.5937 39.25 93.5 39.3125C93.4219 39.3594 90.5469 39.375 87.125 39.3594L80.8906 39.3281L80.8437 33.1875L80.8125 27.0625H48H15.1875V33.3906C15.1875 38.3125 15.1406 39.75 14.9844 39.7969C14.8906 39.8438 11.8438 39.8594 8.25 39.8438L1.70313 39.7969L4.57813 36.75C6.15625 35.0625 10.2656 30.7031 13.7031 27.0625C17.1406 23.4063 21.1875 19.125 22.6875 17.5313C24.1875 15.9375 27.0312 12.9063 29.0156 10.8125C30.9844 8.70313 32.8906 6.67188 33.2656 6.29688C33.8437 5.67188 33.9375 5.62501 34.1875 5.82813C34.4062 6.00001 38.7969 10.6406 47.2031 19.5938C47.4375 19.8438 47.9375 19.3438 54.3281 12.5313C58.1094 8.50001 61.2812 5.20313 61.375 5.20313C61.4687 5.18751 64.6719 8.51563 68.5 12.5625ZM79.0937 37.0625V45.8125L70.9375 45.7812L62.7656 45.7344L62.7187 45.2187L62.6719 44.7187H59.0781C57.1094 44.7187 55.5 44.6875 55.5 44.6562C55.5 44.625 55.75 44.1875 56.0469 43.6875C57.6719 40.9844 57.7969 37.1719 56.3594 34.2812C52.9531 27.5156 43.4844 26.9219 39.2812 33.2344C37.0625 36.5312 37.0625 40.625 39.25 44.1562L39.5937 44.7187H36.375H33.1562V45.2656V45.8125H25.0312H16.9062V37.0625V28.3125H48H79.0937V37.0625ZM49.625 30.0313C51.2969 30.4531 52.5937 31.1875 53.7812 32.375C57.3281 35.9062 57.3281 41.5156 53.7656 45.0312C52.1406 46.6406 49.7031 47.6875 47.5312 47.6875C45.2812 47.6875 42.8437 46.6406 41.2031 44.9687C39.3906 43.1406 38.625 41.2656 38.625 38.7031C38.625 36.1406 39.4062 34.25 41.2031 32.4375C43.4844 30.125 46.5625 29.25 49.625 30.0313ZM42.1094 47C44.4531 48.5781 47.8125 49.0156 50.5625 48.0781C51.6719 47.7187 53.0781 47 53.2344 46.7344C53.2969 46.6562 58.5469 46.5937 66.2187 46.5937H79.0937V47.6406V48.6719L79.5469 48.0469C80.6562 46.5156 83.0469 46.3437 84.3906 47.7187C86.375 49.75 85 53.1406 82.2031 53.1562C80.8594 53.1562 79.875 52.6094 79.2812 51.5156C79.125 51.2344 79.1094 51.2812 79.0937 51.7812V52.375H67.9219H56.75V67.8437V83.3125H47.4531H38.1562V67.8437V52.375H27.5312H16.9062V51.625L16.8906 50.8906L16.6875 51.3594C16.4219 51.9531 15.5625 52.7656 14.9844 52.9844C14.7344 53.0781 14.1406 53.1562 13.6406 53.1562C12.4063 53.1562 11.4844 52.5781 10.9063 51.4219C10.2813 50.1406 10.4219 48.9219 11.3281 47.8906C12.875 46.1406 15.5781 46.4687 16.6562 48.5469C16.9062 49.0156 16.9062 49.0156 16.9062 47.9062C16.9062 47.2969 16.9531 46.75 17.0156 46.7031C17.0625 46.6406 22.6094 46.5937 29.3125 46.5937H41.5156L42.1094 47ZM33.1562 68.2344V83.3125H25.0312H16.9062V68.2344V53.1562H25.0312H33.1562V68.2344ZM79.0625 68.2656L79.0937 83.3125H70.8906H62.6875V68.3437C62.6875 60.1094 62.7344 53.3125 62.7969 53.2656C62.8437 53.2031 66.5312 53.1719 70.9531 53.1875L79.0156 53.2344L79.0625 68.2656Z" fill="white"/>
</svg>
